<svg width="152" height="152" viewBox="0 0 152 152" fill="none" xmlns="http://www.w3.org/2000/svg">
<path d="M75.9242 0.166656C34.0793 0.166656 0.166656 34.0869 0.166656 75.9242C0.166656 108.017 20.1336 135.453 48.3208 146.495C47.6535 140.504 47.062 131.282 48.5787 124.746C49.9588 118.831 57.4663 87.0868 57.4663 87.0868C57.4663 87.0868 55.1989 82.5444 55.1989 75.8332C55.1989 65.3075 61.3035 57.4436 68.9096 57.4436C75.3782 57.4436 78.4949 62.2969 78.4949 68.1133C78.4949 74.6198 74.3544 84.3341 72.2235 93.3431C70.4414 100.881 76.0076 107.031 83.4392 107.031C96.8997 107.031 107.258 92.835 107.258 72.3372C107.258 54.1979 94.2227 41.5186 75.6132 41.5186C54.0538 41.5186 41.3972 57.6862 41.3972 74.3923C41.3972 80.8988 43.9073 87.8831 47.0392 91.6823C47.3054 91.9685 47.4933 92.3183 47.585 92.6982C47.6766 93.0781 47.6689 93.4751 47.5625 93.8512C46.9862 96.2399 45.7046 101.389 45.4619 102.443C45.1282 103.831 44.3623 104.127 42.9215 103.459C33.4651 99.0533 27.5501 85.2213 27.5501 74.1042C27.5501 50.2091 44.9083 28.2629 77.6077 28.2629C103.891 28.2629 124.313 46.9862 124.313 72.0187C124.313 98.1357 107.85 119.134 85.0014 119.134C77.3195 119.134 70.1077 115.153 67.6356 110.443L62.9112 128.446C61.2049 135.029 56.5867 143.279 53.5002 148.315C60.7659 150.558 68.3277 151.695 75.9317 151.689C117.769 151.689 151.689 117.769 151.689 75.9317C151.689 34.0945 117.761 0.166656 75.9242 0.166656Z" fill="white"/>
</svg>
