<svg width="142" height="142" viewBox="0 0 142 142" fill="none" xmlns="http://www.w3.org/2000/svg">
<path d="M71 47.5683C58.0977 47.5683 47.5684 58.0976 47.5684 71C47.5684 83.9023 58.0977 94.4316 71 94.4316C83.9024 94.4316 94.4317 83.9023 94.4317 71C94.4317 58.0976 83.9024 47.5683 71 47.5683ZM141.277 71C141.277 61.2969 141.365 51.6816 140.82 41.9961C140.275 30.7461 137.709 20.7617 129.482 12.5351C121.238 4.29099 111.272 1.74217 100.022 1.19724C90.3184 0.652323 80.7032 0.740214 71.0176 0.740214C61.3145 0.740214 51.6993 0.652323 42.0137 1.19724C30.7637 1.74217 20.7793 4.30857 12.5528 12.5351C4.30863 20.7793 1.75981 30.7461 1.21488 41.9961C0.669962 51.6992 0.757853 61.3144 0.757853 71C0.757853 80.6855 0.669962 90.3183 1.21488 100.004C1.75981 111.254 4.32621 121.238 12.5528 129.465C20.7969 137.709 30.7637 140.258 42.0137 140.803C51.7168 141.348 61.3321 141.26 71.0176 141.26C80.7207 141.26 90.336 141.348 100.022 140.803C111.272 140.258 121.256 137.691 129.482 129.465C137.727 121.221 140.275 111.254 140.82 100.004C141.383 90.3183 141.277 80.7031 141.277 71V71ZM71 107.053C51.0489 107.053 34.9473 90.9511 34.9473 71C34.9473 51.0488 51.0489 34.9472 71 34.9472C90.9512 34.9472 107.053 51.0488 107.053 71C107.053 90.9511 90.9512 107.053 71 107.053ZM108.529 41.8906C103.871 41.8906 100.109 38.1289 100.109 33.4707C100.109 28.8125 103.871 25.0508 108.529 25.0508C113.188 25.0508 116.949 28.8125 116.949 33.4707C116.951 34.5768 116.734 35.6723 116.311 36.6945C115.889 37.7167 115.268 38.6454 114.486 39.4276C113.704 40.2097 112.775 40.8299 111.753 41.2525C110.731 41.6752 109.635 41.892 108.529 41.8906V41.8906Z" fill="white"/>
</svg>
